<svg width="121" height="56" viewBox="0 0 121 56" fill="none" xmlns="http://www.w3.org/2000/svg">
<g clip-path="url(#clip0_19_618)">
<path d="M47.6711 47.5357C47.2648 48.2129 46.046 48.89 44.624 48.89C41.3059 48.89 38.6651 46.3169 38.6651 42.1863C38.6651 38.0557 41.5091 35.2117 44.4885 35.2117C47.2648 35.2117 47.8743 36.4982 48.2128 36.8368L48.6191 35.4825H51.4631V41.1028H48.0774C48.0097 39.5454 47.0617 38.6651 45.9105 38.6651C44.3531 38.6651 43.3374 40.358 43.3374 42.254C43.3374 44.2177 44.2854 45.7752 45.9105 45.7752C46.994 45.7752 47.468 45.3689 47.7388 44.8271V44.0146H46.5877V41.9831H52.8174V44.0146H52.0726V48.7546H48.2806L47.6711 47.5357Z" fill="white"/>
<path d="M53.3592 39.2747H57.9638V43.8793C57.9638 45.5044 58.2346 46.2493 58.9795 46.2493C59.6566 46.2493 60.1984 45.6398 60.1984 44.8273V41.7801H58.9118V39.2747H63.855V46.2493H64.803V48.7547H61.2141L60.6724 47.5358C60.2661 48.0098 59.5889 49.0256 57.9638 49.0256C55.1198 49.0256 54.1718 47.5358 54.1718 44.421V41.7801H53.3592V39.2747V39.2747Z" fill="white"/>
<path d="M70.8972 48.7547H65.5478V46.2492H66.3604V41.7123H65.5478V39.2746H69.1367L69.6784 40.4935C70.1524 39.6132 70.6941 38.936 72.5901 38.936V42.1863C70.8972 42.1863 69.8815 42.5926 69.8815 44.2855V46.2492H70.8295V48.7547H70.8972Z" fill="white"/>
<path d="M73.1995 39.2747H77.8041V43.8793C77.8041 45.5044 78.075 46.2493 78.8198 46.2493C79.497 46.2493 80.0387 45.6398 80.0387 44.8273V41.7801H78.8198V39.2747H83.763V46.2493H84.711V48.7547H81.1221L80.5804 47.5358C80.1741 48.0098 79.497 49.0256 77.8718 49.0256C75.0278 49.0256 74.0798 47.5358 74.0798 44.421V41.7801H73.2672V39.2747H73.1995Z" fill="white"/>
<path d="M38.1233 17.4029C36.4982 17.4706 35.6179 17.5383 35.4148 17.5383C35.0762 17.5383 34.6699 17.3352 34.3313 16.8612C33.9928 16.3872 33.7896 15.9131 33.7896 15.4391C33.7896 14.6943 35.9565 14.3557 40.2902 14.3557C42.5248 14.3557 44.1499 14.5589 45.1657 15.0329C46.1814 15.5069 46.7231 16.0486 46.7231 16.7257C46.7231 16.9289 46.5877 17.132 46.3845 17.2674C46.1814 17.4706 45.8428 17.5383 45.5042 17.5383C45.1657 17.5383 44.4885 17.5383 43.6082 17.4706C42.6602 17.4029 41.8477 17.4029 41.1028 17.4029C41.1705 17.606 41.1705 17.8092 41.1705 18.0123C41.1705 18.2832 41.1028 18.7572 40.8996 19.4343C40.6965 20.1115 40.4934 21.1272 40.1548 22.4138C39.8162 23.7003 39.4776 25.1901 39.1391 27.0183C38.7328 28.8466 38.5296 29.8624 38.3265 30.2009C38.1233 30.5395 38.0556 30.7427 37.9202 30.7427C37.5816 30.7427 37.1753 30.4718 36.7013 29.8624C36.2273 29.2529 35.9565 28.7789 35.9565 28.4404C35.9565 28.1018 36.2951 26.5443 36.9045 23.9035C37.5816 21.2626 37.9879 19.0957 38.1233 17.4029Z" fill="white"/>
<path d="M46.7231 22.9553L46.5877 20.3821C46.5877 19.5018 46.8585 19.0955 47.4003 19.0955C47.6711 19.0955 48.0097 19.231 48.2805 19.4341C48.5514 19.6373 48.8223 20.0436 48.9577 20.5176C49.4994 20.0436 50.0411 19.705 50.6506 19.4341C51.26 19.1633 51.8017 19.0278 52.2757 19.0278C53.3591 19.0278 53.9686 19.2987 53.9686 19.8404C53.9686 20.1113 53.9009 20.3144 53.8331 20.4498C53.7654 20.5853 53.63 20.653 53.63 20.7207C53.5623 20.7884 53.4946 20.8561 53.3591 20.9916C53.2237 21.0593 53.156 21.1947 53.0883 21.1947C52.7497 21.3978 52.4789 21.601 52.3434 21.6687C51.6663 22.075 51.0568 22.6167 50.5828 23.2261C50.1088 23.8356 49.7025 24.6481 49.4994 25.7316C49.0931 27.4922 48.6868 28.7787 48.2805 29.659C47.8743 30.5393 47.468 30.9456 46.994 30.9456C46.52 30.9456 46.1814 30.7425 45.9105 30.2685C45.6397 29.7945 45.572 29.3882 45.572 28.9819C45.572 28.5756 45.7074 27.9662 46.046 27.1536C46.3168 26.341 46.52 25.6639 46.6554 25.0544C46.7231 24.3773 46.7231 23.7001 46.7231 22.9553Z" fill="white"/>
<path d="M63.4486 24.3773C63.7195 24.6481 63.8549 24.8513 63.8549 25.0544C63.8549 25.2576 63.7872 25.6639 63.5841 26.2733C63.3809 26.8827 63.3132 27.3567 63.2455 27.6953C63.1778 28.0339 63.1101 28.3047 63.1101 28.5079C63.0423 28.711 63.0423 28.8465 63.0423 28.9819C63.0423 29.1173 62.9746 29.2527 62.9746 29.3882C62.9746 29.5236 62.9069 29.659 62.9069 29.7945C62.9069 29.8622 62.8392 29.9976 62.8392 30.133C62.7715 30.2685 62.7715 30.3362 62.7038 30.4039C62.6361 30.4716 62.6361 30.5393 62.5683 30.607C62.5006 30.7425 62.2975 30.8102 62.0943 30.8102C61.8912 30.8102 61.6203 30.607 61.2818 30.2007C60.9432 29.7945 60.74 29.2527 60.6046 28.6433C59.1826 30.133 57.9637 30.8102 57.0157 30.8102C56.3386 30.8102 55.6615 30.4716 54.9166 29.7267C54.1717 28.9819 53.7654 28.3047 53.7654 27.5599C53.7654 26.815 54.104 25.7993 54.7134 24.445C55.3906 23.0907 56.2709 21.8718 57.422 20.7207C58.5732 19.5695 59.6566 19.0278 60.8078 19.0278C61.4172 19.0278 62.1621 19.4341 63.0423 20.1113C63.8549 20.8561 64.3289 21.5333 64.3289 22.1427C64.1258 22.8876 63.9226 23.5647 63.4486 24.3773ZM56.8126 27.9662C57.422 27.9662 58.2346 27.5599 59.2503 26.7473C60.266 25.9347 60.8755 24.8513 61.1463 23.6324C61.1463 23.4293 61.2818 23.3616 61.5526 23.2939C61.4849 22.4136 61.3495 22.0073 61.1463 22.0073C60.5369 22.0073 59.8598 22.4136 59.1149 23.2261C58.37 24.0387 57.7606 24.8513 57.2866 25.7316C56.8126 26.6119 56.5417 27.289 56.5417 27.6953C56.5417 27.8307 56.5417 27.8985 56.6095 27.9662C56.5417 27.9662 56.6772 27.9662 56.8126 27.9662Z" fill="white"/>
<path d="M73.3349 19.0957C73.7412 19.0957 74.0798 19.2311 74.4861 19.502C74.8247 19.7728 75.0278 20.0437 75.0278 20.3823C75.0278 20.924 74.5538 22.2106 73.6735 24.1743C72.7932 26.138 71.9129 27.7632 71.1681 28.982C70.4232 30.2009 69.8138 30.8103 69.4075 30.8103C69.2043 30.8103 68.8658 30.6749 68.3918 30.3363C67.9178 29.9978 67.7146 29.7269 67.5792 29.456C67.2406 28.5758 66.7666 26.9506 66.2249 24.5806C65.6832 22.2106 65.48 20.7209 65.48 20.0437C65.48 19.3666 65.6832 19.0957 66.0895 19.0957C66.6312 19.0957 67.1052 19.2988 67.7146 19.7051C68.5949 20.3823 69.1366 21.3303 69.2721 22.4814C69.3398 23.0232 69.3398 23.7003 69.4075 24.5129C69.4075 25.3255 69.4752 26.0026 69.6106 26.5443C69.9492 25.8672 70.4232 24.7837 70.9649 23.4294C71.5066 22.0751 71.9807 20.9917 72.3192 20.1791C72.6578 19.502 73.0641 19.0957 73.3349 19.0957Z" fill="white"/>
<path d="M83.6953 25.3932C82.6796 26.0026 81.6638 26.2735 80.5804 26.2735C79.497 26.2735 78.6167 26.2057 77.9395 26.0703C77.8041 26.4766 77.7364 26.8829 77.7364 27.2892C77.7364 27.6955 77.8041 27.9663 77.9395 28.1695C78.075 28.3726 78.4135 28.4403 78.9553 28.4403C80.1064 28.4403 81.0544 28.3049 81.867 28.1018C82.6796 27.8986 83.0859 27.7632 83.1536 27.7632C83.763 27.7632 84.1016 27.9663 84.1016 28.3726C84.1016 28.982 83.6276 29.5238 82.6118 30.0655C81.6638 30.6072 80.5127 30.878 79.2261 30.878C77.9395 30.878 76.9238 30.4718 76.1112 29.6592C75.3664 28.8466 74.9601 27.8986 74.9601 26.8152C74.9601 25.7317 75.2987 24.5806 75.9081 23.3617C76.5852 22.1429 77.3301 21.1271 78.3458 20.3146C79.2938 19.502 80.3095 19.0957 81.2576 19.0957C82.2056 19.0957 83.0858 19.5697 83.9661 20.5177C84.7787 21.4657 85.185 22.4137 85.185 23.3617C85.185 24.1066 84.711 24.7837 83.6953 25.3932ZM82.0701 22.346C81.7316 22.0751 81.4607 21.9397 81.1898 21.9397C80.919 21.9397 80.5804 22.1429 80.1064 22.5491C79.6324 22.9554 79.2261 23.4972 78.8198 24.1066C78.9553 24.1066 79.1584 24.1066 79.4293 24.1066C81.5284 24.1066 82.5441 23.768 82.5441 23.0232C82.5441 22.82 82.4087 22.6169 82.0701 22.346Z" fill="white"/>
<path d="M90.7376 13.7462C91.3471 14.4233 91.6179 15.0328 91.6179 15.6422C91.6179 16.2516 91.5502 17.3351 91.347 18.8925C91.1439 20.4499 90.9408 21.6688 90.8053 22.6168C89.5188 28.1017 88.6385 30.878 88.1645 30.878C87.8259 30.878 87.4196 30.6071 86.9456 30.0654C86.4716 29.5237 86.2007 29.0497 86.2007 28.7111C86.2007 28.7111 86.4039 27.8985 86.8102 26.3411C87.2165 24.7837 87.6227 22.82 88.029 20.3822C88.4353 17.9445 88.6385 15.6422 88.6385 13.4076C88.6385 12.9336 88.8416 12.7305 89.3156 12.7305C89.7219 12.7305 90.1959 13.069 90.7376 13.7462Z" fill="white"/>
<path d="M24.7158 54.2394C24.7158 55.2551 23.9033 56 22.9553 56C21.9395 56 21.1947 55.1874 21.1947 54.2394C21.1947 53.2914 22.0072 52.4788 22.9553 52.4788C23.9033 52.4111 24.7158 53.2237 24.7158 54.2394Z" fill="white"/>
<path d="M7.4486 55.9999C8.42094 55.9999 9.20918 55.2117 9.20918 54.2393C9.20918 53.267 8.42094 52.4788 7.4486 52.4788C6.47626 52.4788 5.68802 53.267 5.68802 54.2393C5.68802 55.2117 6.47626 55.9999 7.4486 55.9999Z" fill="white"/>
<path d="M21.3978 1.69287H9.07376V13.5429H21.3978V1.69287Z" stroke="white" stroke-width="3.3659" stroke-miterlimit="10"/>
<path d="M19.3664 3.04716H10.9698C10.6312 3.04716 10.2926 2.7763 10.2926 2.37001V0.677146C10.2926 0.338573 10.5635 0 10.9698 0H19.3664C19.705 0 20.0435 0.270859 20.0435 0.677146V2.37001C20.0435 2.7763 19.7727 3.04716 19.3664 3.04716Z" fill="white"/>
<path d="M9.88632 52.4788H5.07858V54.1039H9.88632V52.4788Z" fill="white"/>
<path d="M25.3253 52.4788H20.5175V54.1039H25.3253V52.4788Z" fill="white"/>
<path d="M27.0859 12.4595H3.31802C1.48972 12.4595 0 13.9492 0 15.7775V49.1608C0 50.9891 1.48972 52.4788 3.31802 52.4788H27.0859C28.9141 52.4788 30.4039 50.9891 30.4039 49.1608V15.7775C30.4039 13.9492 28.9141 12.4595 27.0859 12.4595ZM9.2769 43.1342C9.2769 43.8791 8.66747 44.4208 7.99033 44.4208C7.24547 44.4208 6.70375 43.8114 6.70375 43.1342V23.023C6.70375 22.2781 7.31318 21.7364 7.99033 21.7364C8.73519 21.7364 9.2769 22.3458 9.2769 23.023V43.1342ZM16.5224 43.1342C16.5224 43.8791 15.9129 44.4208 15.2358 44.4208C14.4909 44.4208 13.9492 43.8114 13.9492 43.1342V23.023C13.9492 22.2781 14.5586 21.7364 15.2358 21.7364C15.9807 21.7364 16.5224 22.3458 16.5224 23.023V43.1342ZM23.7001 43.1342C23.7001 43.8791 23.0907 44.4208 22.4135 44.4208C21.7364 44.4208 21.127 43.8114 21.127 43.1342V23.023C21.127 22.2781 21.7364 21.7364 22.4135 21.7364C23.0907 21.7364 23.7001 22.3458 23.7001 23.023V43.1342Z" fill="white"/>
<path d="M93.9879 42.5924C126.559 42.5924 121.683 13.6105 111.729 6.70363C104.687 1.76046 89.5187 2.70846 79.9033 7.9902" stroke="white" stroke-width="3" stroke-linecap="round" stroke-linejoin="round" stroke-dasharray="10.29 10.29"/>
<path d="M81.5961 2.91162L80.3773 7.65165L85.1173 8.87051L82.6118 10.3602L77.8718 9.14137L79.0907 4.46906L81.5961 2.91162Z" fill="white"/>
<path d="M97.5091 42.7957C97.5091 44.9626 95.7485 46.6554 93.6493 46.6554C91.4825 46.6554 89.7896 44.8949 89.7896 42.7957C89.7896 40.6288 91.5502 38.936 93.6493 38.936C95.7485 38.8683 97.5091 40.6288 97.5091 42.7957Z" fill="white"/>
</g>
<defs>
<clipPath id="clip0_19_618">
<rect width="120.261" height="56" fill="white"/>
</clipPath>
</defs>
</svg>
